<svg xmlns="http://www.w3.org/2000/svg" viewBox="0 0 24 24" width="24" height="24">
  <defs>
    <linearGradient id="bookGradient" x1="0%" y1="0%" x2="100%" y2="100%">
      <stop offset="0%" style="stop-color:#8B4513;stop-opacity:1" />
      <stop offset="50%" style="stop-color:#A0522D;stop-opacity:1" />
      <stop offset="100%" style="stop-color:#654321;stop-opacity:1" />
    </linearGradient>
    <linearGradient id="pageGradient" x1="0%" y1="0%" x2="100%" y2="100%">
      <stop offset="0%" style="stop-color:#FFFAF0;stop-opacity:1" />
      <stop offset="50%" style="stop-color:#F5F5DC;stop-opacity:1" />
      <stop offset="100%" style="stop-color:#F0E68C;stop-opacity:1" />
    </linearGradient>
    <radialGradient id="metalGradient" cx="50%" cy="50%" r="50%">
      <stop offset="0%" style="stop-color:#FFD700;stop-opacity:1" />
      <stop offset="50%" style="stop-color:#FFA500;stop-opacity:1" />
      <stop offset="100%" style="stop-color:#B8860B;stop-opacity:1" />
    </radialGradient>
  </defs>
  <!-- Book cover -->
  <rect x="3" y="3" width="16" height="18" rx="1" ry="1" fill="url(#bookGradient)" stroke="#654321" stroke-width="1"/>
  <!-- Book spine -->
  <rect x="3" y="3" width="2" height="18" fill="#654321" stroke="#4A2C2A" stroke-width="0.5"/>
  <!-- Pages -->
  <rect x="5.5" y="4" width="12.5" height="16" fill="url(#pageGradient)" stroke="#DDD" stroke-width="0.3"/>
  <!-- Page lines -->
  <line x1="7" y1="7" x2="16" y2="7" stroke="#8B4513" stroke-width="0.3" opacity="0.6"/>
  <line x1="7" y1="9" x2="15" y2="9" stroke="#8B4513" stroke-width="0.3" opacity="0.6"/>
  <line x1="7" y1="11" x2="16" y2="11" stroke="#8B4513" stroke-width="0.3" opacity="0.6"/>
  <line x1="7" y1="13" x2="14" y2="13" stroke="#8B4513" stroke-width="0.3" opacity="0.6"/>
  <line x1="7" y1="15" x2="15" y2="15" stroke="#8B4513" stroke-width="0.3" opacity="0.6"/>
  <line x1="7" y1="17" x2="16" y2="17" stroke="#8B4513" stroke-width="0.3" opacity="0.6"/>
  <!-- Cover decoration -->
  <rect x="6" y="5" width="10" height="2" fill="url(#metalGradient)" stroke="#B8860B" stroke-width="0.3" rx="0.5"/>
  <!-- Title embossing -->
  <rect x="7" y="5.3" width="8" height="1.4" fill="none" stroke="#654321" stroke-width="0.4" rx="0.3"/>
  <!-- Corner decorations -->
  <circle cx="7" cy="8" r="0.8" fill="url(#metalGradient)" stroke="#B8860B" stroke-width="0.3"/>
  <circle cx="15" cy="8" r="0.8" fill="url(#metalGradient)" stroke="#B8860B" stroke-width="0.3"/>
  <circle cx="7" cy="18" r="0.8" fill="url(#metalGradient)" stroke="#B8860B" stroke-width="0.3"/>
  <circle cx="15" cy="18" r="0.8" fill="url(#metalGradient)" stroke="#B8860B" stroke-width="0.3"/>
  <!-- Central emblem -->
  <circle cx="11" cy="13" r="2" fill="url(#metalGradient)" stroke="#B8860B" stroke-width="0.5"/>
  <path d="M11 11.5 L12 12.5 L11 13.5 L10 12.5 Z" fill="#654321"/>
  <path d="M9.5 13 L10.5 14 L11.5 13 L10.5 12 Z" fill="#654321"/>
  <!-- Book clasp -->
  <rect x="18" y="11" width="1.5" height="2" fill="url(#metalGradient)" stroke="#B8860B" stroke-width="0.3" rx="0.3"/>
</svg>