<svg xmlns="http://www.w3.org/2000/svg" viewBox="0 0 24 24" width="24" height="24">
  <defs>
    <radialGradient id="goldGradient" cx="30%" cy="30%" r="70%">
      <stop offset="0%" style="stop-color:#FFFF99;stop-opacity:1" />
      <stop offset="30%" style="stop-color:#FFD700;stop-opacity:1" />
      <stop offset="70%" style="stop-color:#FFA500;stop-opacity:1" />
      <stop offset="100%" style="stop-color:#B8860B;stop-opacity:1" />
    </radialGradient>
    <radialGradient id="innerGradient" cx="50%" cy="50%" r="40%">
      <stop offset="0%" style="stop-color:#FFFF99;stop-opacity:0.8" />
      <stop offset="100%" style="stop-color:#FFD700;stop-opacity:0.3" />
    </radialGradient>
  </defs>
  <!-- Outer coin -->
  <circle cx="12" cy="12" r="10" fill="url(#goldGradient)" stroke="#B8860B" stroke-width="1"/>
  <!-- Inner circle -->
  <circle cx="12" cy="12" r="7" fill="none" stroke="#B8860B" stroke-width="0.8" opacity="0.7"/>
  <!-- Crown symbol -->
  <path d="M8 10 L10 8 L12 10 L14 8 L16 10 L16 14 L8 14 Z" fill="url(#innerGradient)" stroke="#B8860B" stroke-width="0.5"/>
  <!-- Crown jewels -->
  <circle cx="10" cy="9" r="0.8" fill="#FF0000" opacity="0.8"/>
  <circle cx="12" cy="8.5" r="0.8" fill="#0000FF" opacity="0.8"/>
  <circle cx="14" cy="9" r="0.8" fill="#FF0000" opacity="0.8"/>
  <!-- Decorative dots around edge -->
  <circle cx="12" cy="4" r="0.5" fill="#B8860B"/>
  <circle cx="12" cy="20" r="0.5" fill="#B8860B"/>
  <circle cx="4" cy="12" r="0.5" fill="#B8860B"/>
  <circle cx="20" cy="12" r="0.5" fill="#B8860B"/>
  <circle cx="7.76" cy="7.76" r="0.4" fill="#B8860B"/>
  <circle cx="16.24" cy="7.76" r="0.4" fill="#B8860B"/>
  <circle cx="7.76" cy="16.24" r="0.4" fill="#B8860B"/>
  <circle cx="16.24" cy="16.24" r="0.4" fill="#B8860B"/>
</svg>