<svg xmlns="http://www.w3.org/2000/svg" viewBox="0 0 24 24" width="24" height="24">
  <defs>
    <linearGradient id="scrollGradient" x1="0%" y1="0%" x2="100%" y2="100%">
      <stop offset="0%" style="stop-color:#F5DEB3;stop-opacity:1" />
      <stop offset="50%" style="stop-color:#DEB887;stop-opacity:1" />
      <stop offset="100%" style="stop-color:#D2B48C;stop-opacity:1" />
    </linearGradient>
    <linearGradient id="sealGradient" x1="0%" y1="0%" x2="100%" y2="100%">
      <stop offset="0%" style="stop-color:#DC143C;stop-opacity:1" />
      <stop offset="50%" style="stop-color:#B22222;stop-opacity:1" />
      <stop offset="100%" style="stop-color:#8B0000;stop-opacity:1" />
    </linearGradient>
  </defs>
  <!-- Scroll body -->
  <rect x="3" y="2" width="18" height="20" rx="1" ry="1" fill="url(#scrollGradient)" stroke="#D2B48C" stroke-width="0.5"/>
  <!-- Scroll top roll -->
  <ellipse cx="12" cy="2" rx="9" ry="1.5" fill="#DEB887" stroke="#D2B48C" stroke-width="0.5"/>
  <!-- Scroll bottom roll -->
  <ellipse cx="12" cy="22" rx="9" ry="1.5" fill="#DEB887" stroke="#D2B48C" stroke-width="0.5"/>
  <!-- Text lines -->
  <line x1="6" y1="6" x2="18" y2="6" stroke="#8B4513" stroke-width="0.5" opacity="0.7"/>
  <line x1="6" y1="8" x2="16" y2="8" stroke="#8B4513" stroke-width="0.5" opacity="0.7"/>
  <line x1="6" y1="10" x2="18" y2="10" stroke="#8B4513" stroke-width="0.5" opacity="0.7"/>
  <line x1="6" y1="12" x2="14" y2="12" stroke="#8B4513" stroke-width="0.5" opacity="0.7"/>
  <line x1="6" y1="14" x2="17" y2="14" stroke="#8B4513" stroke-width="0.5" opacity="0.7"/>
  <line x1="6" y1="16" x2="15" y2="16" stroke="#8B4513" stroke-width="0.5" opacity="0.7"/>
  <line x1="6" y1="18" x2="18" y2="18" stroke="#8B4513" stroke-width="0.5" opacity="0.7"/>
  <!-- Wax seal -->
  <circle cx="18" cy="18" r="2.5" fill="url(#sealGradient)" stroke="#8B0000" stroke-width="0.5"/>
  <!-- Seal emblem -->
  <path d="M18 16.5 L19 17.5 L18 18.5 L17 17.5 Z" fill="#FFD700" stroke="#B8860B" stroke-width="0.3"/>
  <!-- Aging spots -->
  <circle cx="8" cy="5" r="0.5" fill="#CD853F" opacity="0.4"/>
  <circle cx="15" cy="9" r="0.3" fill="#CD853F" opacity="0.3"/>
  <circle cx="10" cy="15" r="0.4" fill="#CD853F" opacity="0.4"/>
  <circle cx="16" cy="12" r="0.2" fill="#CD853F" opacity="0.3"/>
</svg>