<svg xmlns="http://www.w3.org/2000/svg" viewBox="0 0 24 24" width="24" height="24">
  <defs>
    <radialGradient id="gearGradient" cx="50%" cy="50%" r="50%">
      <stop offset="0%" style="stop-color:#C0C0C0;stop-opacity:1" />
      <stop offset="50%" style="stop-color:#808080;stop-opacity:1" />
      <stop offset="100%" style="stop-color:#404040;stop-opacity:1" />
    </radialGradient>
    <radialGradient id="centerGradient" cx="30%" cy="30%" r="70%">
      <stop offset="0%" style="stop-color:#FFD700;stop-opacity:1" />
      <stop offset="50%" style="stop-color:#FFA500;stop-opacity:1" />
      <stop offset="100%" style="stop-color:#B8860B;stop-opacity:1" />
    </radialGradient>
  </defs>
  <!-- Outer gear teeth -->
  <path d="M12 1 L13.5 3 L16 2.5 L16.5 5 L19 5.5 L18.5 8 L21 9.5 L19.5 11 L21 12.5 L18.5 14 L19 16.5 L16.5 17 L16 19.5 L13.5 19 L12 21 L10.5 19 L8 19.5 L7.5 17 L5 16.5 L5.5 14 L3 12.5 L4.5 11 L3 9.5 L5.5 8 L5 5.5 L7.5 5 L8 2.5 L10.5 3 Z" fill="url(#gearGradient)" stroke="#202020" stroke-width="0.8"/>
  <!-- Inner gear body -->
  <circle cx="12" cy="12" r="6" fill="url(#gearGradient)" stroke="#404040" stroke-width="1"/>
  <!-- Center hole -->
  <circle cx="12" cy="12" r="2.5" fill="url(#centerGradient)" stroke="#B8860B" stroke-width="0.8"/>
  <!-- Decorative inner ring -->
  <circle cx="12" cy="12" r="4" fill="none" stroke="#606060" stroke-width="0.5" opacity="0.7"/>
  <!-- Center ornament -->
  <path d="M12 10.5 L13 11.5 L12 12.5 L11 11.5 Z" fill="#B8860B"/>
  <path d="M10.5 12 L11.5 13 L12.5 12 L11.5 11 Z" fill="#B8860B"/>
  <!-- Small decorative holes -->
  <circle cx="12" cy="8" r="0.6" fill="#404040"/>
  <circle cx="12" cy="16" r="0.6" fill="#404040"/>
  <circle cx="8" cy="12" r="0.6" fill="#404040"/>
  <circle cx="16" cy="12" r="0.6" fill="#404040"/>
</svg>