<svg xmlns="http://www.w3.org/2000/svg" viewBox="0 0 40 40" width="40" height="40">
  <defs>
    <linearGradient id="frameGradient" x1="0%" y1="0%" x2="100%" y2="100%">
      <stop offset="0%" style="stop-color:#D4AF37;stop-opacity:1" />
      <stop offset="50%" style="stop-color:#FFD700;stop-opacity:1" />
      <stop offset="100%" style="stop-color:#B8860B;stop-opacity:1" />
    </linearGradient>
    <linearGradient id="faceGradient" x1="0%" y1="0%" x2="100%" y2="100%">
      <stop offset="0%" style="stop-color:#FDBCB4;stop-opacity:1" />
      <stop offset="100%" style="stop-color:#F4A688;stop-opacity:1" />
    </linearGradient>
    <linearGradient id="hairGradient" x1="0%" y1="0%" x2="100%" y2="100%">
      <stop offset="0%" style="stop-color:#8B4513;stop-opacity:1" />
      <stop offset="100%" style="stop-color:#654321;stop-opacity:1" />
    </linearGradient>
    <linearGradient id="crownGradient" x1="0%" y1="0%" x2="100%" y2="100%">
      <stop offset="0%" style="stop-color:#FFD700;stop-opacity:1" />
      <stop offset="50%" style="stop-color:#FFA500;stop-opacity:1" />
      <stop offset="100%" style="stop-color:#FF8C00;stop-opacity:1" />
    </linearGradient>
  </defs>
  
  <!-- Ornate frame -->
  <circle cx="20" cy="20" r="19" fill="url(#frameGradient)" stroke="#B8860B" stroke-width="1"/>
  <circle cx="20" cy="20" r="16" fill="#2C1810" stroke="url(#frameGradient)" stroke-width="0.5"/>
  
  <!-- Face -->
  <ellipse cx="20" cy="22" rx="10" ry="12" fill="url(#faceGradient)"/>
  
  <!-- Hair -->
  <path d="M10 16 Q15 12 20 14 Q25 12 30 16 Q28 10 20 10 Q12 10 10 16 Z" fill="url(#hairGradient)"/>
  
  <!-- Crown -->
  <path d="M12 16 L15 12 L18 14 L20 10 L22 14 L25 12 L28 16 L26 18 L14 18 Z" fill="url(#crownGradient)" stroke="#B8860B" stroke-width="0.3"/>
  
  <!-- Crown jewels -->
  <circle cx="20" cy="12" r="1" fill="#FF0000"/>
  <circle cx="16" cy="14" r="0.7" fill="#0000FF"/>
  <circle cx="24" cy="14" r="0.7" fill="#00FF00"/>
  
  <!-- Eyes -->
  <ellipse cx="17" cy="20" rx="1.5" ry="2" fill="#FFFFFF"/>
  <ellipse cx="23" cy="20" rx="1.5" ry="2" fill="#FFFFFF"/>
  <circle cx="17" cy="20" r="1" fill="#4A4A4A"/>
  <circle cx="23" cy="20" r="1" fill="#4A4A4A"/>
  <circle cx="17.3" cy="19.7" r="0.3" fill="#FFFFFF"/>
  <circle cx="23.3" cy="19.7" r="0.3" fill="#FFFFFF"/>
  
  <!-- Eyebrows -->
  <path d="M15 18 Q17 17 19 18" stroke="#654321" stroke-width="0.8" fill="none"/>
  <path d="M21 18 Q23 17 25 18" stroke="#654321" stroke-width="0.8" fill="none"/>
  
  <!-- Nose -->
  <path d="M20 22 L19 24 L20 25 L21 24 Z" fill="#F4A688" stroke="#E09572" stroke-width="0.3"/>
  
  <!-- Mouth -->
  <path d="M18 26 Q20 28 22 26" stroke="#D4756B" stroke-width="1" fill="none"/>
  
  <!-- Beard -->
  <path d="M14 28 Q20 32 26 28 Q24 34 20 34 Q16 34 14 28 Z" fill="url(#hairGradient)" opacity="0.8"/>
  
  <!-- Mustache -->
  <path d="M16 25 Q18 26 20 25 Q22 26 24 25" stroke="#654321" stroke-width="1.2" fill="none"/>
  
  <!-- Decorative border details -->
  <circle cx="20" cy="4" r="1" fill="#FFD700" opacity="0.7"/>
  <circle cx="20" cy="36" r="1" fill="#FFD700" opacity="0.7"/>
  <circle cx="4" cy="20" r="1" fill="#FFD700" opacity="0.7"/>
  <circle cx="36" cy="20" r="1" fill="#FFD700" opacity="0.7"/>
</svg>